HIERARCHY
ROOT root
{
  OFFSET 0 98.6856 0
  CHANNELS 6 Xposition Yposition Zposition Zrotation Xrotation Yrotation
  JOINT torso_1
  {
    OFFSET 0 5.37224 -1.21793
    CHANNELS 6 Xposition Yposition Zposition Zrotation Xrotation Yrotation
    JOINT torso_2
    {
      OFFSET 0 5.94127 1.13336
      CHANNELS 6 Xposition Yposition Zposition Zrotation Xrotation Yrotation
      JOINT torso_3
      {
        OFFSET -1.08535e-17 6.33601 0.121658
        CHANNELS 6 Xposition Yposition Zposition Zrotation Xrotation Yrotation
        JOINT torso_4
        {
          OFFSET -1.16841e-17 6.88189 -0.46916
          CHANNELS 6 Xposition Yposition Zposition Zrotation Xrotation Yrotation
          JOINT torso_5
          {
            OFFSET -2.08699e-17 8.0451 -1.59297
            CHANNELS 6 Xposition Yposition Zposition Zrotation Xrotation Yrotation
            JOINT torso_6
            {
              OFFSET -2.67949e-17 10.0463 -0.967353
              CHANNELS 6 Xposition Yposition Zposition Zrotation Xrotation Yrotation
              JOINT torso_7
              {
                OFFSET -3.07187e-17 11.1612 1.66806
                CHANNELS 6 Xposition Yposition Zposition Zrotation Xrotation Yrotation
                JOINT neck_1
                {
                  OFFSET -1.36661e-17 5.06312 0.756688
                  CHANNELS 6 Xposition Yposition Zposition Zrotation Xrotation Yrotation
                  JOINT neck_2
                  {
                    OFFSET -1.91632e-17 5.09976 0.446172
                    CHANNELS 6 Xposition Yposition Zposition Zrotation Xrotation Yrotation
                    JOINT head
                    {
                      OFFSET -2.12574e-17 5.10962 0.809285
                      CHANNELS 6 Xposition Yposition Zposition Zrotation Xrotation Yrotation
                      End Site
                      {
                        OFFSET 0 0.1 0
                      }
                    }
                  }
                }
                JOINT l_shoulder
                {
                  OFFSET 1.30426 -8.04703 7.96922
                  CHANNELS 6 Xposition Yposition Zposition Zrotation Xrotation Yrotation
                  JOINT l_up_arm
                  {
                    OFFSET 13.7035 3.43734 -3.45766
                    CHANNELS 6 Xposition Yposition Zposition Zrotation Xrotation Yrotation
                    JOINT l_low_arm
                    {
                      OFFSET 30.8964 0.0632652 0.14496
                      CHANNELS 6 Xposition Yposition Zposition Zrotation Xrotation Yrotation
                      JOINT l_hand
                      {
                        OFFSET 25.6348 0.0524902 0.120274
                        CHANNELS 6 Xposition Yposition Zposition Zrotation Xrotation Yrotation
                        End Site
                        {
                          OFFSET 0.1 0 0
                        }
                      }
                    }
                  }
                }
                JOINT r_shoulder
                {
                  OFFSET -1.30426 -8.04702 7.96912
                  CHANNELS 6 Xposition Yposition Zposition Zrotation Xrotation Yrotation
                  JOINT r_up_arm
                  {
                    OFFSET -13.7035 3.43734 -3.45766
                    CHANNELS 6 Xposition Yposition Zposition Zrotation Xrotation Yrotation
                    JOINT r_low_arm
                    {
                      OFFSET -30.8964 0.0632652 0.14496
                      CHANNELS 6 Xposition Yposition Zposition Zrotation Xrotation Yrotation
                      JOINT r_hand
                      {
                        OFFSET -25.6348 0.0524901 0.120274
                        CHANNELS 6 Xposition Yposition Zposition Zrotation Xrotation Yrotation
                        End Site
                        {
                          OFFSET -0.1 0 0
                        }
                      }
                    }
                  }
                }
              }
            }
          }
        }
      }
    }
  }
  JOINT l_up_leg
  {
    OFFSET 9.77065 -4.44866 2.1502
    CHANNELS 6 Xposition Yposition Zposition Zrotation Xrotation Yrotation
    JOINT l_low_leg
    {
      OFFSET -0.901622 -41.0132 -0.693059
      CHANNELS 6 Xposition Yposition Zposition Zrotation Xrotation Yrotation
      JOINT l_foot
      {
        OFFSET -2.46068 -42.7371 -6.39839
        CHANNELS 6 Xposition Yposition Zposition Zrotation Xrotation Yrotation
        JOINT l_toes
        {
          OFFSET 0.82413 -10.4558 13.2182
          CHANNELS 6 Xposition Yposition Zposition Zrotation Xrotation Yrotation
          End Site
          {
            OFFSET 0 0 0.1
          }
        }
      }
    }
  }
  JOINT r_up_leg
  {
    OFFSET -9.77065 -4.44866 2.1502
    CHANNELS 6 Xposition Yposition Zposition Zrotation Xrotation Yrotation
    JOINT r_low_leg
    {
      OFFSET 0.901622 -41.0132 -0.693059
      CHANNELS 6 Xposition Yposition Zposition Zrotation Xrotation Yrotation
      JOINT r_foot
      {
        OFFSET 2.46068 -42.7371 -6.39839
        CHANNELS 6 Xposition Yposition Zposition Zrotation Xrotation Yrotation
        JOINT r_toes
        {
          OFFSET -0.82413 -10.4558 13.2182
          CHANNELS 6 Xposition Yposition Zposition Zrotation Xrotation Yrotation
          End Site
          {
            OFFSET 0 0 0.1
          }
        }
      }
    }
  }
}
MOTION
Frames: 4
Frame Time: 0.02
-3.36811 92.1507 1124.21 -12.6845 -31.838 -137.811 0 5.37224 -1.21793 -5.54274 -1.48765 2.03766 0 5.94127 1.13336 -5.31151 -2.49462 1.55988 -1.08535e-17 6.33601 0.121658 -4.20068 0.231713 1.45399 -1.16841e-17 6.88189 -0.46916 -2.77187 3.2363 1.64709 -2.08699e-17 8.0451 -1.59297 -0.923812 5.87114 2.19442 -2.67949e-17 10.0463 -0.967353 2.2158 7.2631 2.06489 -3.07187e-17 11.1612 1.66806 0.055269 0.0194686 -0.0377286 -1.36661e-17 5.06312 0.756688 0.977438 3.67934 -9.96896 -1.91632e-17 5.09976 0.446172 3.36098 -12.0997 -5.03506 -2.12574e-17 5.10962 0.809285 -2.5028 -17.6508 -21.7826 1.30426 -8.04703 7.96922 11.5419 -1.99223 4.88599 13.7035 3.43734 -3.45766 -89.5944 32.0897 15.8338 30.8964 0.0632652 0.14496 11.6599 -9.03246 -76.0444 25.6348 0.0524902 0.120274 -11.044 -32.8419 2.46808 -1.30426 -8.04702 7.96912 -15.1307 -1.08746 -9.90307 -13.7035 3.43734 -3.45766 80.4485 35.4946 4.19526 -30.8964 0.0632652 0.14496 -10.9227 -16.8844 115.017 -25.6348 0.0524901 0.120274 -0.402794 -14.4988 -2.24802 9.77065 -4.44866 2.1502 -40.224 -46.4381 -48.185 -0.901622 -41.0132 -0.693059 -15.363 45.5327 5.62907 -2.46068 -42.7371 -6.39839 2.06349 -7.38867 15.0648 0.82413 -10.4558 13.2182 -3.47873e-16 -8.07563e-16 2.48481e-17 -9.77065 -4.44866 2.1502 -2.94318 12.3632 50.2971 0.901622 -41.0132 -0.693059 -0.105184 -0.392392 -0.00720906 2.46068 -42.7371 -6.39839 11.7658 35.9831 -16.7522 -0.82413 -10.4558 13.2182 -9.74045e-15 -1.73937e-16 -1.23495e-14 
-5.05246 92.0964 1122.07 -12.5058 -32.1147 -139.581 0 5.37224 -1.21793 -5.66555 -2.25414 2.15858 0 5.94127 1.13336 -5.38778 -2.91011 1.66924 -1.08535e-17 6.33601 0.121658 -4.23415 -0.0229416 1.59256 -1.16841e-17 6.88189 -0.46916 -2.82529 3.32803 1.79463 -2.08699e-17 8.0451 -1.59297 -0.966082 6.12619 2.34486 -2.67949e-17 10.0463 -0.967353 2.17693 7.54166 2.21792 -3.07187e-17 11.1612 1.66806 0.0541987 0.0129353 -0.0346522 -1.36661e-17 5.06312 0.756688 0.660653 2.83102 -10.7783 -1.91632e-17 5.09976 0.446172 3.61445 -12.2323 -5.3981 -2.12574e-17 5.10962 0.809285 -2.67133 -17.0857 -21.0045 1.30426 -8.04703 7.96922 10.9397 -2.04712 4.61432 13.7035 3.43734 -3.45766 -88.3554 32.6883 15.447 30.8964 0.0632652 0.14496 11.7196 -9.27481 -77.2371 25.6348 0.0524902 0.120274 -11.0615 -32.9252 1.86411 -1.30426 -8.04702 7.96912 -12.8619 -1.04514 -9.55267 -13.7035 3.43734 -3.45766 81.8987 33.7258 1.09704 -30.8964 0.0632652 0.14496 -11.0096 -16.6994 114.014 -25.6348 0.0524901 0.120274 -0.379769 -13.1556 -2.63842 9.77065 -4.44866 2.1502 -39.5007 -46.5698 -48.4303 -0.901622 -41.0132 -0.693059 -13.4055 41.6338 4.34868 -2.46068 -42.7371 -6.39839 0.953657 -9.18117 15.2096 0.82413 -10.4558 13.2182 -7.45443e-16 -8.32411e-16 4.96962e-17 -9.77065 -4.44866 2.1502 -2.73553 12.2417 49.7838 0.901622 -41.0132 -0.693059 0.0129888 0.0484688 0.000841035 2.46068 -42.7371 -6.39839 11.7129 36.3105 -16.636 -0.82413 -10.4558 13.2182 6.95746e-15 -8.94531e-16 -1.30701e-14 
-7.00227 91.6211 1119.55 -11.9366 -31.9701 -141.217 0 5.37224 -1.21793 -5.63578 -3.01201 2.16516 0 5.94127 1.13336 -5.31326 -3.24493 1.66893 -1.08535e-17 6.33601 0.121658 -4.13586 -0.213648 1.62643 -1.16841e-17 6.88189 -0.46916 -2.77437 3.48753 1.83033 -2.08699e-17 8.0451 -1.59297 -0.960998 6.42135 2.37379 -2.67949e-17 10.0463 -0.967353 2.07304 7.87461 2.23811 -3.07187e-17 11.1612 1.66806 0.0490865 0.00621477 -0.0282414 -1.36661e-17 5.06312 0.756688 0.231151 1.93635 -11.5569 -1.91632e-17 5.09976 0.446172 3.81491 -12.281 -5.71633 -2.12574e-17 5.10962 0.809285 -2.24848 -16.5086 -19.6129 1.30426 -8.04703 7.96922 10.4721 -2.14604 4.42097 13.7035 3.43734 -3.45766 -87.4836 33.3931 14.7405 30.8964 0.0632652 0.14496 11.7636 -9.46934 -78.1907 25.6348 0.0524902 0.120274 -10.9031 -32.6929 1.01783 -1.30426 -8.04702 7.96912 -10.5472 -1.12692 -8.8591 -13.7035 3.43734 -3.45766 83.4553 32.0149 -1.92824 -30.8964 0.0632652 0.14496 -11.1621 -16.3514 112.151 -25.6348 0.0524901 0.120274 -0.476558 -10.4597 -2.85495 9.77065 -4.44866 2.1502 -38.1004 -46.8954 -47.8067 -0.901622 -41.0132 -0.693059 -12.7341 40.172 3.93512 -2.46068 -42.7371 -6.39839 0.205642 -10.6998 15.3568 0.82413 -10.4558 13.2182 -1.93815e-15 -8.82107e-16 9.93923e-17 -9.77065 -4.44866 2.1502 -1.81196 12.0917 48.7804 0.901622 -41.0132 -0.693059 0.35226 1.31527 0.0189152 2.46068 -42.7371 -6.39839 10.5206 34.5163 -16.0614 -0.82413 -10.4558 13.2182 1.00883e-14 -1.81391e-15 -1.40143e-14 
-8.84461 90.684 1117.08 -11.7764 -30.3954 -143.544 0 5.37224 -1.21793 -5.43957 -3.41325 2.12317 0 5.94127 1.13336 -5.08872 -3.20377 1.61139 -1.08535e-17 6.33601 0.121658 -3.92623 -0.136859 1.61492 -1.16841e-17 6.88189 -0.46916 -2.65716 3.77771 1.81652 -2.08699e-17 8.0451 -1.59297 -0.943212 6.72259 2.3611 -2.67949e-17 10.0463 -0.967353 1.89588 8.13207 2.21062 -3.07187e-17 11.1612 1.66806 0.0414213 0.00122955 -0.01841 -1.36661e-17 5.06312 0.756688 -0.203602 1.48467 -11.9103 -1.91632e-17 5.09976 0.446172 3.91681 -12.3387 -5.79155 -2.12574e-17 5.10962 0.809285 -1.2129 -15.9099 -17.9001 1.30426 -8.04703 7.96922 10.1757 -2.30092 4.28619 13.7035 3.43734 -3.45766 -86.7555 34.4374 13.5377 30.8964 0.0632652 0.14496 11.813 -9.70817 -79.3574 25.6348 0.0524902 0.120274 -9.82668 -32.8565 1.09405 -1.30426 -8.04702 7.96912 -8.33512 -1.30204 -7.85798 -13.7035 3.43734 -3.45766 85.1877 30.2341 -4.44539 -30.8964 0.0632652 0.14496 -11.3777 -15.7939 109.224 -25.6348 0.0524901 0.120274 -0.488016 -7.47908 -3.08246 9.77065 -4.44866 2.1502 -35.6845 -46.4992 -46.4689 -0.901622 -41.0132 -0.693059 -13.4445 41.7167 4.37312 -2.46068 -42.7371 -6.39839 0.114439 -11.3727 15.4729 0.82413 -10.4558 13.2182 8.44835e-16 -7.57867e-16 -2.48481e-17 -9.77065 -4.44866 2.1502 -0.00221297 13.1631 47.7783 0.901622 -41.0132 -0.693059 1.46319 5.4609 0.0256022 2.46068 -42.7371 -6.39839 4.58574 22.6619 -14.6565 -0.82413 -10.4558 13.2182 1.04859e-14 -1.82633e-15 -1.40267e-14 
